<svg xmlns="http://www.w3.org/2000/svg" width="145.402" height="39.92" viewBox="0 0 145.402 39.92">
  <g id="Grupo_303" data-name="Grupo 303" transform="translate(12319 21544)">
    <path id="gate" d="M11.155,6.658A12.284,12.284,0,0,1,17.229,8.2l.156.089.1.058V7.345H22.7V28.98c0,6.559-4.463,10.94-11.025,10.94-5.631,0-10.049-3.322-10.9-8.206l-.024-.142-.21-1.325h5.27l.194.9c.491,2.278,2.627,3.777,5.674,3.777A5.412,5.412,0,0,0,17.447,29.1V27.84h.043v-.048l-.1.058a12.191,12.191,0,0,1-5.857,1.63h-.379A11.206,11.206,0,0,1,0,18.157a11.137,11.137,0,0,1,11.154-11.5ZM61.483,0V7.345H69v4.823H61.483V21.2c0,2.867.837,3.873,3.1,3.921h.176a11.878,11.878,0,0,0,2.865-.426l.176-.048,1.206-.338L69.9,29.1l-1,.284a15.618,15.618,0,0,1-4.61.732c-5.168,0-7.962-3.1-8.017-8.748v-9.2H50.988V7.348h5.283V0ZM38.259,6.83A11.632,11.632,0,0,1,44.089,8.3l.153.089.044.027V7.345H49.5V29.474h-5.21V28.441l-.044.027a11.5,11.5,0,0,1-5.616,1.56h-.369A11.49,11.49,0,0,1,26.847,18.4,11.477,11.477,0,0,1,38.259,6.83Zm.387,4.868A6.6,6.6,0,0,0,32.1,18.412a6.61,6.61,0,0,0,6.544,6.758,6.847,6.847,0,0,0,5.613-2.789l.034-.045v-7.8l-.034-.045A6.84,6.84,0,0,0,38.781,11.7ZM83.36,6.83c6.274,0,10.762,4.857,10.81,11.5v.3a9.705,9.705,0,0,1-.043,1.014l-.119,1.078h-16.6l.03.1a5.983,5.983,0,0,0,5.779,4.4h.234A4.952,4.952,0,0,0,88.136,22.9l.038-.079.311-.653h5.5l-.518,1.516c-1.335,3.9-5.281,6.359-10.1,6.359A11.257,11.257,0,0,1,71.911,18.408,11.247,11.247,0,0,1,83.36,6.83Zm-71.817,4.7A6.291,6.291,0,0,0,5.25,18.157a6.348,6.348,0,0,0,6.285,6.457A7.206,7.206,0,0,0,17.449,21.7l.035-.048V14.483l-.035-.048a7.2,7.2,0,0,0-5.775-2.908Zm71.725.129a5.914,5.914,0,0,0-5.836,4.383l-.033.112h11.32l-.02-.082a5.366,5.366,0,0,0-5.326-4.413Z" transform="translate(-12318.996 -21544)" fill="#353535"/>
    <path id="Combined-Shape" d="M352.716,24.166H367.2l-2.457,5.155h-2.779a10.816,10.816,0,0,1,1.62,5.711v.2h0V45.242a10.9,10.9,0,0,1-19.777,6.339l-.085-.121,4.237-2.936a5.745,5.745,0,0,0,10.47-3.183V44.278a10.867,10.867,0,1,1-5.712-20.112Zm25.773,0a10.866,10.866,0,1,1-10.866,10.866,10.866,10.866,0,0,1,10.866-10.866Zm-25.645,5.155h-.24a5.712,5.712,0,1,0,.24,0Zm25.652,0a5.721,5.721,0,1,1-.007,0Z" transform="translate(-12562.953 -21561.246)" fill="#00a9de"/>
  </g>
</svg>
